<svg width="15" height="36" viewBox="0 0 15 36" fill="none" xmlns="http://www.w3.org/2000/svg">
<path d="M6.79289 35.4293C7.18342 35.8198 7.81658 35.8198 8.20711 35.4293L14.5711 29.0653C14.9616 28.6748 14.9616 28.0416 14.5711 27.6511C14.1805 27.2606 13.5474 27.2606 13.1569 27.6511L7.5 33.308L1.84315 27.6511C1.45262 27.2606 0.819456 27.2606 0.428931 27.6511C0.0384069 28.0416 0.0384069 28.6748 0.428931 29.0653L6.79289 35.4293ZM6.5 0.722168V2.84717H8.5V0.722168H6.5ZM6.5 7.09717V11.3472H8.5V7.09717H6.5ZM6.5 15.5972V19.8472H8.5V15.5972H6.5ZM6.5 24.0972V28.3472H8.5L8.5 24.0972H6.5ZM6.5 32.5972V34.7222H8.5V32.5972H6.5Z" fill="#1935CA"/>
</svg>
